<?xml version="1.0" standalone="no"?>
<!DOCTYPE svg PUBLIC "-//W3C//DTD SVG 20010904//EN"
 "http://www.w3.org/TR/2001/REC-SVG-20010904/DTD/svg10.dtd">
<svg version="1.0" xmlns="http://www.w3.org/2000/svg"
 width="500.000000pt" height="500.000000pt" viewBox="0 0 500.000000 500.000000"
 preserveAspectRatio="xMidYMid meet">

<g transform="translate(0.000000,500.000000) scale(0.100000,-0.100000)"
fill="#000000" stroke="none">
<path d="M0 2500 l0 -2500 2500 0 2500 0 0 2500 0 2500 -2500 0 -2500 0 0
-2500z m2438 1160 l32 -20 0 -105 0 -105 -28 0 c-16 0 -37 9 -46 19 -40 44
-108 33 -130 -21 -19 -43 -3 -86 37 -103 34 -14 85 -3 94 21 6 17 45 18 61 2
8 -8 12 -49 12 -119 0 -112 -8 -135 -47 -127 -14 2 -19 16 -23 64 -6 79 -19
94 -81 94 -38 0 -53 5 -73 25 -50 50 -136 15 -136 -55 0 -36 38 -80 70 -80 27
0 77 26 82 42 4 10 12 10 34 3 l29 -10 3 -109 c2 -71 -1 -113 -9 -122 -17 -20
-49 -17 -76 8 -49 46 -133 10 -133 -57 0 -67 84 -103 133 -57 17 16 36 22 68
22 67 0 83 17 89 91 6 69 25 94 54 70 13 -11 16 -35 16 -116 0 -57 -3 -110 -6
-119 -8 -22 -51 -20 -81 4 -34 26 -66 25 -99 -3 -37 -33 -37 -81 0 -114 33
-28 65 -29 99 -3 14 11 39 20 56 20 l32 0 -3 -101 c-3 -97 -4 -103 -29 -122
-15 -10 -47 -21 -71 -24 -91 -10 -168 58 -168 148 l0 46 -56 0 c-45 0 -63 6
-97 29 -57 41 -84 105 -71 171 9 47 8 49 -25 78 -19 16 -40 44 -47 62 -32 75
-5 189 54 233 27 20 29 25 20 52 -12 35 -3 101 19 138 27 46 90 80 149 80 l52
0 4 57 c4 50 9 60 46 95 38 35 46 38 99 38 40 0 68 -6 91 -20z m318 -24 c41
-41 44 -47 44 -99 l0 -55 39 5 c55 7 104 -12 145 -57 40 -44 54 -97 39 -151
-9 -34 -8 -38 22 -62 43 -34 65 -84 65 -146 0 -67 -19 -112 -63 -147 -30 -24
-34 -31 -26 -51 24 -62 -6 -154 -62 -194 -24 -17 -50 -24 -96 -27 l-63 -4 0
-47 c0 -61 -29 -107 -83 -131 -54 -25 -81 -25 -134 1 l-43 21 0 104 0 104 26
0 c14 0 37 -9 51 -20 54 -42 133 -7 133 60 0 67 -92 107 -135 60 -12 -13 -29
-20 -44 -18 l-26 3 -3 116 c-2 90 1 119 11 128 29 23 45 3 49 -66 5 -77 19
-93 86 -93 32 0 52 -7 74 -25 37 -31 69 -32 104 -1 39 33 39 89 0 122 -35 31
-67 30 -105 -2 -23 -19 -38 -24 -56 -20 l-26 7 3 117 3 117 27 3 c17 2 34 -4
47 -17 27 -27 80 -27 109 -1 68 64 0 171 -85 135 -17 -7 -34 -18 -37 -24 -4
-6 -27 -11 -50 -11 -67 0 -90 -24 -96 -102 -5 -59 -6 -63 -30 -63 l-25 0 -3
122 -3 122 28 7 c17 5 28 3 31 -5 5 -14 55 -41 76 -41 8 0 28 12 45 26 47 39
42 102 -10 129 -40 21 -66 19 -95 -10 -14 -14 -36 -25 -49 -25 -25 0 -25 0
-25 105 l0 105 33 20 c21 13 50 20 86 20 50 0 57 -3 97 -44z m-1340 -1561 c32
-52 62 -95 66 -95 4 0 8 43 8 96 0 93 1 95 23 92 22 -3 22 -4 20 -157 -2 -85
-5 -156 -7 -159 -19 -18 -60 30 -132 156 -10 17 -22 32 -26 32 -4 0 -8 -43 -8
-96 0 -93 -1 -95 -22 -92 -23 3 -23 6 -25 161 l-3 157 24 0 c20 0 35 -17 82
-95z m1473 -37 l-1 -133 71 -3 c61 -2 71 -5 71 -21 0 -26 -19 -31 -111 -31
l-79 0 0 160 0 160 25 0 26 0 -2 -132z m-1094 57 c0 -18 -8 -20 -66 -23 -66
-3 -67 -3 -71 -32 -3 -17 -2 -32 0 -35 3 -3 29 -5 59 -5 46 0 53 -3 53 -20 0
-16 -8 -19 -57 -22 -55 -3 -58 -5 -61 -30 -3 -27 -3 -27 65 -30 62 -3 68 -5
71 -25 3 -22 0 -23 -65 -23 -120 0 -113 -8 -113 142 l0 129 93 -3 c84 -3 92
-5 92 -23z m106 3 c1 -13 1 -43 0 -68 -4 -117 37 -172 89 -120 17 17 20 33 20
116 0 93 1 95 23 92 21 -3 22 -7 22 -111 0 -107 -1 -109 -28 -133 -39 -33
-105 -33 -144 0 -26 23 -28 29 -31 120 -4 110 -1 126 28 126 14 0 20 -7 21
-22z m417 -14 c26 -30 24 -64 -6 -97 -17 -19 -16 -24 23 -120 7 -16 4 -18 -16
-15 -17 2 -32 18 -52 56 -24 44 -33 52 -57 52 -28 0 -29 -2 -32 -52 -3 -46 -6
-53 -25 -56 -23 -3 -23 -2 -23 126 0 71 3 132 8 136 4 5 41 6 82 3 66 -5 78
-9 98 -33z m245 -81 c57 -146 57 -147 30 -151 -17 -2 -26 4 -35 22 -10 23 -17
26 -63 26 -46 0 -53 -3 -63 -25 -12 -25 -52 -36 -52 -14 0 10 45 139 81 237 6
14 17 22 32 22 21 0 29 -14 70 -117z m567 -19 c0 -135 0 -135 -22 -132 -22 3
-23 7 -24 98 -2 135 4 170 27 170 18 0 19 -9 19 -136z m132 124 c8 -7 34 -43
58 -80 24 -38 46 -68 51 -68 4 0 9 35 11 77 3 65 6 78 21 81 15 3 17 -8 17
-132 0 -118 -2 -136 -16 -136 -20 0 -61 43 -111 118 l-38 57 -3 -87 c-3 -80
-5 -88 -22 -88 -19 0 -20 8 -20 135 0 124 2 135 18 135 10 0 25 -6 34 -12z
m282 -43 l11 -49 44 52 c28 33 52 52 66 52 35 0 36 -10 6 -49 -15 -20 -31 -42
-35 -49 -4 -7 10 -43 33 -86 23 -40 41 -76 41 -80 0 -3 -12 -6 -28 -6 -23 0
-32 9 -60 60 -19 33 -37 60 -41 60 -18 0 -31 -28 -31 -66 0 -47 -13 -62 -35
-44 -12 10 -15 40 -15 137 0 112 2 124 17 121 11 -2 20 -19 27 -53z m-754 -55
c0 -18 -7 -20 -70 -20 -63 0 -70 2 -70 20 0 18 7 20 70 20 63 0 70 -2 70 -20z"/>
<path d="M2203 2073 c-19 -4 -23 -11 -23 -39 0 -32 2 -34 34 -34 19 0 44 9 57
19 21 18 22 21 9 34 -18 18 -47 25 -77 20z"/>
<path d="M2474 1995 c-20 -49 -18 -55 21 -55 25 0 35 4 35 15 0 18 -28 75 -36
75 -3 0 -12 -16 -20 -35z"/>
</g>
</svg>
